<?xml version="1.0" encoding="UTF-8" standalone="no"?>
<!DOCTYPE svg PUBLIC "-//W3C//DTD SVG 1.1//EN"
 "http://www.w3.org/Graphics/SVG/1.1/DTD/svg11.dtd">
<!-- Generated by graphviz version 2.43.0 (0)
 -->
<!-- Title: src/test/Seamly2DTest/tst_vtooldependency.cpp Pages: 1 -->
<svg width="2777pt" height="159pt"
 viewBox="0.00 0.00 2776.50 159.00" xmlns="http://www.w3.org/2000/svg" xmlns:xlink="http://www.w3.org/1999/xlink">
<g id="graph0" class="graph" transform="scale(1 1) rotate(0) translate(4 155)">
<title>src/test/Seamly2DTest/tst_vtooldependency.cpp</title>
<!-- Node1 -->
<g id="node1" class="node">
<title>Node1</title>
<g id="a_node1"><a xlink:title=" ">
<polygon fill="#999999" stroke="#666666" points="1725,-151 1585,-151 1585,-121 1725,-121 1725,-151"/>
<text text-anchor="start" x="1593" y="-139" font-family="Helvetica,sans-Serif" font-size="10.00">src/test/Seamly2DTest</text>
<text text-anchor="middle" x="1655" y="-128" font-family="Helvetica,sans-Serif" font-size="10.00">/tst_vtooldependency.cpp</text>
</a>
</g>
</g>
<!-- Node2 -->
<g id="node2" class="node">
<title>Node2</title>
<g id="a_node2"><a xlink:href="../../d2/d01/tst__vtooldependency_8h.html" target="_top" xlink:title=" ">
<polygon fill="white" stroke="#666666" points="126,-79.5 0,-79.5 0,-60.5 126,-60.5 126,-79.5"/>
<text text-anchor="middle" x="63" y="-67.5" font-family="Helvetica,sans-Serif" font-size="10.00">tst_vtooldependency.h</text>
</a>
</g>
</g>
<!-- Node1&#45;&gt;Node2 -->
<g id="edge1" class="edge">
<title>Node1&#45;&gt;Node2</title>
<path fill="none" stroke="#63b8ff" d="M1584.71,-134.17C1325.24,-130.89 421.47,-117.35 135,-85 127.17,-84.12 118.92,-82.84 110.91,-81.42"/>
<polygon fill="#63b8ff" stroke="#63b8ff" points="111.41,-77.95 100.94,-79.55 110.12,-84.83 111.41,-77.95"/>
</g>
<!-- Node4 -->
<g id="node4" class="node">
<title>Node4</title>
<g id="a_node4"><a xlink:title=" ">
<polygon fill="#e0e0e0" stroke="#999999" points="296,-79.5 144,-79.5 144,-60.5 296,-60.5 296,-79.5"/>
<text text-anchor="middle" x="220" y="-67.5" font-family="Helvetica,sans-Serif" font-size="10.00">../ifc/xml/vabstractpattern.h</text>
</a>
</g>
</g>
<!-- Node1&#45;&gt;Node4 -->
<g id="edge3" class="edge">
<title>Node1&#45;&gt;Node4</title>
<path fill="none" stroke="#63b8ff" d="M1584.87,-135.52C1384.59,-136.32 793.02,-134.03 305,-85 295.39,-84.03 285.22,-82.67 275.39,-81.16"/>
<polygon fill="#63b8ff" stroke="#63b8ff" points="275.72,-77.67 265.3,-79.55 274.62,-84.58 275.72,-77.67"/>
</g>
<!-- Node5 -->
<g id="node5" class="node">
<title>Node5</title>
<g id="a_node5"><a xlink:title=" ">
<polygon fill="#e0e0e0" stroke="#999999" points="472,-79.5 314,-79.5 314,-60.5 472,-60.5 472,-79.5"/>
<text text-anchor="middle" x="393" y="-67.5" font-family="Helvetica,sans-Serif" font-size="10.00">../ifc/xml/vpatternconverter.h</text>
</a>
</g>
</g>
<!-- Node1&#45;&gt;Node5 -->
<g id="edge4" class="edge">
<title>Node1&#45;&gt;Node5</title>
<path fill="none" stroke="#63b8ff" d="M1584.73,-134.78C1402.3,-133.6 898.81,-126.53 482,-85 471.96,-84 461.33,-82.61 451.05,-81.1"/>
<polygon fill="#63b8ff" stroke="#63b8ff" points="451.32,-77.6 440.91,-79.56 450.27,-84.52 451.32,-77.6"/>
</g>
<!-- Node6 -->
<g id="node6" class="node">
<title>Node6</title>
<g id="a_node6"><a xlink:title=" ">
<polygon fill="#e0e0e0" stroke="#999999" points="617.5,-79.5 490.5,-79.5 490.5,-60.5 617.5,-60.5 617.5,-79.5"/>
<text text-anchor="middle" x="554" y="-67.5" font-family="Helvetica,sans-Serif" font-size="10.00">../ifc/xml/vtoolrecord.h</text>
</a>
</g>
</g>
<!-- Node1&#45;&gt;Node6 -->
<g id="edge5" class="edge">
<title>Node1&#45;&gt;Node6</title>
<path fill="none" stroke="#63b8ff" d="M1584.91,-134.99C1418.25,-134.21 985.39,-127.86 627,-85 619.16,-84.06 610.9,-82.77 602.87,-81.35"/>
<polygon fill="#63b8ff" stroke="#63b8ff" points="603.33,-77.88 592.86,-79.51 602.06,-84.76 603.33,-77.88"/>
</g>
<!-- Node7 -->
<g id="node7" class="node">
<title>Node7</title>
<g id="a_node7"><a xlink:title=" ">
<polygon fill="#e0e0e0" stroke="#999999" points="760.5,-79.5 635.5,-79.5 635.5,-60.5 760.5,-60.5 760.5,-79.5"/>
<text text-anchor="middle" x="698" y="-67.5" font-family="Helvetica,sans-Serif" font-size="10.00">../vgeometry/vpointf.h</text>
</a>
</g>
</g>
<!-- Node1&#45;&gt;Node7 -->
<g id="edge6" class="edge">
<title>Node1&#45;&gt;Node7</title>
<path fill="none" stroke="#63b8ff" d="M1584.73,-134.26C1434.58,-131.97 1071.59,-122.66 770,-85 762.44,-84.06 754.49,-82.79 746.74,-81.4"/>
<polygon fill="#63b8ff" stroke="#63b8ff" points="747.18,-77.92 736.71,-79.53 745.89,-84.81 747.18,-77.92"/>
</g>
<!-- Node8 -->
<g id="node8" class="node">
<title>Node8</title>
<g id="a_node8"><a xlink:title=" ">
<polygon fill="#e0e0e0" stroke="#999999" points="921,-79.5 779,-79.5 779,-60.5 921,-60.5 921,-79.5"/>
<text text-anchor="middle" x="850" y="-67.5" font-family="Helvetica,sans-Serif" font-size="10.00">../vpatterndb/vcontainer.h</text>
</a>
</g>
</g>
<!-- Node1&#45;&gt;Node8 -->
<g id="edge7" class="edge">
<title>Node1&#45;&gt;Node8</title>
<path fill="none" stroke="#63b8ff" d="M1584.88,-132.54C1455.34,-127.47 1169.92,-113.82 931,-85 922.35,-83.96 913.23,-82.62 904.34,-81.18"/>
<polygon fill="#63b8ff" stroke="#63b8ff" points="904.88,-77.72 894.44,-79.52 903.73,-84.62 904.88,-77.72"/>
</g>
<!-- Node9 -->
<g id="node9" class="node">
<title>Node9</title>
<g id="a_node9"><a xlink:title=" ">
<polygon fill="#e0e0e0" stroke="#999999" points="1086.5,-79.5 939.5,-79.5 939.5,-60.5 1086.5,-60.5 1086.5,-79.5"/>
<text text-anchor="middle" x="1013" y="-67.5" font-family="Helvetica,sans-Serif" font-size="10.00">../vpatterndb/vpiecenode.h</text>
</a>
</g>
</g>
<!-- Node1&#45;&gt;Node9 -->
<g id="edge8" class="edge">
<title>Node1&#45;&gt;Node9</title>
<path fill="none" stroke="#63b8ff" d="M1584.65,-130.47C1478.5,-123.24 1271.15,-107.57 1096,-85 1087.56,-83.91 1078.67,-82.6 1069.97,-81.21"/>
<polygon fill="#63b8ff" stroke="#63b8ff" points="1070.31,-77.72 1059.87,-79.56 1069.18,-84.63 1070.31,-77.72"/>
</g>
<!-- Node10 -->
<g id="node10" class="node">
<title>Node10</title>
<g id="a_node10"><a xlink:title=" ">
<polygon fill="#e0e0e0" stroke="#999999" points="1231.5,-85 1104.5,-85 1104.5,-55 1231.5,-55 1231.5,-85"/>
<text text-anchor="start" x="1112.5" y="-73" font-family="Helvetica,sans-Serif" font-size="10.00">../vpatterndb/variables</text>
<text text-anchor="middle" x="1168" y="-62" font-family="Helvetica,sans-Serif" font-size="10.00">/vinternalvariable.h</text>
</a>
</g>
</g>
<!-- Node1&#45;&gt;Node10 -->
<g id="edge9" class="edge">
<title>Node1&#45;&gt;Node10</title>
<path fill="none" stroke="#63b8ff" d="M1584.84,-128.02C1504.43,-119.69 1368.47,-104.58 1241.56,-85.02"/>
<polygon fill="#63b8ff" stroke="#63b8ff" points="1242.07,-81.55 1231.66,-83.48 1241,-88.47 1242.07,-81.55"/>
</g>
<!-- Node11 -->
<g id="node11" class="node">
<title>Node11</title>
<g id="a_node11"><a xlink:title=" ">
<polygon fill="#e0e0e0" stroke="#999999" points="1408.5,-79.5 1249.5,-79.5 1249.5,-60.5 1408.5,-60.5 1408.5,-79.5"/>
<text text-anchor="middle" x="1329" y="-67.5" font-family="Helvetica,sans-Serif" font-size="10.00">../vtools/tools/vabstracttool.h</text>
</a>
</g>
</g>
<!-- Node1&#45;&gt;Node11 -->
<g id="edge10" class="edge">
<title>Node1&#45;&gt;Node11</title>
<path fill="none" stroke="#63b8ff" d="M1584.66,-121.19C1524.05,-109.29 1437.83,-92.37 1382.65,-81.53"/>
<polygon fill="#63b8ff" stroke="#63b8ff" points="1383.2,-78.07 1372.72,-79.58 1381.86,-84.94 1383.2,-78.07"/>
</g>
<!-- Node12 -->
<g id="node12" class="node">
<title>Node12</title>
<g id="a_node12"><a xlink:title=" ">
<polygon fill="#e0e0e0" stroke="#999999" points="1563.5,-85 1426.5,-85 1426.5,-55 1563.5,-55 1563.5,-85"/>
<text text-anchor="start" x="1434.5" y="-73" font-family="Helvetica,sans-Serif" font-size="10.00">../vtools/undocommands</text>
<text text-anchor="middle" x="1495" y="-62" font-family="Helvetica,sans-Serif" font-size="10.00">/addreferenceline.h</text>
</a>
</g>
</g>
<!-- Node1&#45;&gt;Node12 -->
<g id="edge11" class="edge">
<title>Node1&#45;&gt;Node12</title>
<path fill="none" stroke="#63b8ff" d="M1619.89,-120.95C1596.23,-111.49 1564.84,-98.93 1539.44,-88.78"/>
<polygon fill="#63b8ff" stroke="#63b8ff" points="1540.62,-85.48 1530.03,-85.01 1538.02,-91.98 1540.62,-85.48"/>
</g>
<!-- Node13 -->
<g id="node13" class="node">
<title>Node13</title>
<g id="a_node13"><a xlink:title=" ">
<polygon fill="#e0e0e0" stroke="#999999" points="1728,-85 1582,-85 1582,-55 1728,-55 1728,-85"/>
<text text-anchor="start" x="1590" y="-73" font-family="Helvetica,sans-Serif" font-size="10.00">../vtools/undocommands</text>
<text text-anchor="middle" x="1655" y="-62" font-family="Helvetica,sans-Serif" font-size="10.00">/replaceobjectreferences.h</text>
</a>
</g>
</g>
<!-- Node1&#45;&gt;Node13 -->
<g id="edge12" class="edge">
<title>Node1&#45;&gt;Node13</title>
<path fill="none" stroke="#63b8ff" d="M1655,-120.8C1655,-113.34 1655,-103.99 1655,-95.41"/>
<polygon fill="#63b8ff" stroke="#63b8ff" points="1658.5,-95.16 1655,-85.16 1651.5,-95.16 1658.5,-95.16"/>
</g>
<!-- Node14 -->
<g id="node14" class="node">
<title>Node14</title>
<g id="a_node14"><a xlink:title=" ">
<polygon fill="#e0e0e0" stroke="#999999" points="1883.5,-85 1746.5,-85 1746.5,-55 1883.5,-55 1883.5,-85"/>
<text text-anchor="start" x="1754.5" y="-73" font-family="Helvetica,sans-Serif" font-size="10.00">../vtools/undocommands</text>
<text text-anchor="middle" x="1815" y="-62" font-family="Helvetica,sans-Serif" font-size="10.00">/savepiecepathoptions.h</text>
</a>
</g>
</g>
<!-- Node1&#45;&gt;Node14 -->
<g id="edge13" class="edge">
<title>Node1&#45;&gt;Node14</title>
<path fill="none" stroke="#63b8ff" d="M1690.11,-120.95C1713.77,-111.49 1745.16,-98.93 1770.56,-88.78"/>
<polygon fill="#63b8ff" stroke="#63b8ff" points="1771.98,-91.98 1779.97,-85.01 1769.38,-85.48 1771.98,-91.98"/>
</g>
<!-- Node15 -->
<g id="node15" class="node">
<title>Node15</title>
<g id="a_node15"><a xlink:title=" ">
<polygon fill="#e0e0e0" stroke="#999999" points="2038.5,-85 1901.5,-85 1901.5,-55 2038.5,-55 2038.5,-85"/>
<text text-anchor="start" x="1909.5" y="-73" font-family="Helvetica,sans-Serif" font-size="10.00">../vtools/undocommands</text>
<text text-anchor="middle" x="1970" y="-62" font-family="Helvetica,sans-Serif" font-size="10.00">/savetooloptions.h</text>
</a>
</g>
</g>
<!-- Node1&#45;&gt;Node15 -->
<g id="edge14" class="edge">
<title>Node1&#45;&gt;Node15</title>
<path fill="none" stroke="#63b8ff" d="M1724.13,-120.95C1773.45,-110.93 1839.87,-97.44 1891.24,-87"/>
<polygon fill="#63b8ff" stroke="#63b8ff" points="1892.2,-90.38 1901.3,-84.96 1890.81,-83.52 1892.2,-90.38"/>
</g>
<!-- Node16 -->
<g id="node16" class="node">
<title>Node16</title>
<g id="a_node16"><a xlink:title=" ">
<polygon fill="#e0e0e0" stroke="#999999" points="2129.5,-79.5 2056.5,-79.5 2056.5,-60.5 2129.5,-60.5 2129.5,-79.5"/>
<text text-anchor="middle" x="2093" y="-67.5" font-family="Helvetica,sans-Serif" font-size="10.00">QCheckBox</text>
</a>
</g>
</g>
<!-- Node1&#45;&gt;Node16 -->
<g id="edge15" class="edge">
<title>Node1&#45;&gt;Node16</title>
<path fill="none" stroke="#63b8ff" d="M1725.2,-129.8C1804.31,-123.08 1936.43,-109.26 2048,-85 2051.38,-84.27 2054.87,-83.39 2058.35,-82.44"/>
<polygon fill="#63b8ff" stroke="#63b8ff" points="2059.36,-85.79 2067.98,-79.64 2057.4,-79.07 2059.36,-85.79"/>
</g>
<!-- Node17 -->
<g id="node17" class="node">
<title>Node17</title>
<g id="a_node17"><a xlink:title=" ">
<polygon fill="#e0e0e0" stroke="#999999" points="2204,-79.5 2148,-79.5 2148,-60.5 2204,-60.5 2204,-79.5"/>
<text text-anchor="middle" x="2176" y="-67.5" font-family="Helvetica,sans-Serif" font-size="10.00">QDialog</text>
</a>
</g>
</g>
<!-- Node1&#45;&gt;Node17 -->
<g id="edge16" class="edge">
<title>Node1&#45;&gt;Node17</title>
<path fill="none" stroke="#63b8ff" d="M1725.27,-133.42C1820.3,-130 1994.52,-119.18 2139,-85 2141.51,-84.41 2144.09,-83.68 2146.65,-82.88"/>
<polygon fill="#63b8ff" stroke="#63b8ff" points="2148.03,-86.11 2156.33,-79.52 2145.73,-79.5 2148.03,-86.11"/>
</g>
<!-- Node18 -->
<g id="node18" class="node">
<title>Node18</title>
<g id="a_node18"><a xlink:title=" ">
<polygon fill="#e0e0e0" stroke="#999999" points="2298,-79.5 2222,-79.5 2222,-60.5 2298,-60.5 2298,-79.5"/>
<text text-anchor="middle" x="2260" y="-67.5" font-family="Helvetica,sans-Serif" font-size="10.00">QListWidget</text>
</a>
</g>
</g>
<!-- Node1&#45;&gt;Node18 -->
<g id="edge17" class="edge">
<title>Node1&#45;&gt;Node18</title>
<path fill="none" stroke="#63b8ff" d="M1725.22,-133.21C1831.61,-129.48 2039.63,-118.24 2213,-85 2216.73,-84.28 2220.59,-83.39 2224.42,-82.41"/>
<polygon fill="#63b8ff" stroke="#63b8ff" points="2225.67,-85.69 2234.37,-79.64 2223.8,-78.95 2225.67,-85.69"/>
</g>
<!-- Node19 -->
<g id="node19" class="node">
<title>Node19</title>
<g id="a_node19"><a xlink:title=" ">
<polygon fill="#e0e0e0" stroke="#999999" points="2396,-79.5 2316,-79.5 2316,-60.5 2396,-60.5 2396,-79.5"/>
<text text-anchor="middle" x="2356" y="-67.5" font-family="Helvetica,sans-Serif" font-size="10.00">QPushButton</text>
</a>
</g>
</g>
<!-- Node1&#45;&gt;Node19 -->
<g id="edge18" class="edge">
<title>Node1&#45;&gt;Node19</title>
<path fill="none" stroke="#63b8ff" d="M1725.06,-134.25C1845.11,-131.93 2097.48,-122.57 2307,-85 2311.21,-84.24 2315.58,-83.27 2319.9,-82.2"/>
<polygon fill="#63b8ff" stroke="#63b8ff" points="2321.03,-85.52 2329.78,-79.55 2319.22,-78.76 2321.03,-85.52"/>
</g>
<!-- Node20 -->
<g id="node20" class="node">
<title>Node20</title>
<g id="a_node20"><a xlink:title=" ">
<polygon fill="#e0e0e0" stroke="#999999" points="2507.5,-79.5 2414.5,-79.5 2414.5,-60.5 2507.5,-60.5 2507.5,-79.5"/>
<text text-anchor="middle" x="2461" y="-67.5" font-family="Helvetica,sans-Serif" font-size="10.00">QTemporaryFile</text>
</a>
</g>
</g>
<!-- Node1&#45;&gt;Node20 -->
<g id="edge19" class="edge">
<title>Node1&#45;&gt;Node20</title>
<path fill="none" stroke="#63b8ff" d="M1725.26,-134.48C1858.59,-132.58 2157.16,-123.92 2405,-85 2410.19,-84.19 2415.6,-83.12 2420.92,-81.93"/>
<polygon fill="#63b8ff" stroke="#63b8ff" points="2422.05,-85.26 2430.98,-79.55 2420.44,-78.45 2422.05,-85.26"/>
</g>
<!-- Node21 -->
<g id="node21" class="node">
<title>Node21</title>
<g id="a_node21"><a xlink:title=" ">
<polygon fill="#e0e0e0" stroke="#999999" points="2606,-79.5 2526,-79.5 2526,-60.5 2606,-60.5 2606,-79.5"/>
<text text-anchor="middle" x="2566" y="-67.5" font-family="Helvetica,sans-Serif" font-size="10.00">QTextStream</text>
</a>
</g>
</g>
<!-- Node1&#45;&gt;Node21 -->
<g id="edge20" class="edge">
<title>Node1&#45;&gt;Node21</title>
<path fill="none" stroke="#63b8ff" d="M1725.32,-132.92C1902.76,-127.35 2365.33,-110.74 2517,-85 2521.27,-84.28 2525.7,-83.32 2530.07,-82.24"/>
<polygon fill="#63b8ff" stroke="#63b8ff" points="2531.3,-85.53 2540.05,-79.56 2529.49,-78.77 2531.3,-85.53"/>
</g>
<!-- Node22 -->
<g id="node22" class="node">
<title>Node22</title>
<g id="a_node22"><a xlink:title=" ">
<polygon fill="#e0e0e0" stroke="#999999" points="2703.5,-79.5 2624.5,-79.5 2624.5,-60.5 2703.5,-60.5 2703.5,-79.5"/>
<text text-anchor="middle" x="2664" y="-67.5" font-family="Helvetica,sans-Serif" font-size="10.00">QTreeWidget</text>
</a>
</g>
</g>
<!-- Node1&#45;&gt;Node22 -->
<g id="edge21" class="edge">
<title>Node1&#45;&gt;Node22</title>
<path fill="none" stroke="#63b8ff" d="M1725.19,-133.4C1916.41,-128.73 2443.69,-113.55 2615,-85 2619.44,-84.26 2624.05,-83.26 2628.59,-82.14"/>
<polygon fill="#63b8ff" stroke="#63b8ff" points="2629.56,-85.5 2638.31,-79.52 2627.75,-78.74 2629.56,-85.5"/>
</g>
<!-- Node23 -->
<g id="node23" class="node">
<title>Node23</title>
<g id="a_node23"><a xlink:title=" ">
<polygon fill="#e0e0e0" stroke="#999999" points="2768.5,-79.5 2721.5,-79.5 2721.5,-60.5 2768.5,-60.5 2768.5,-79.5"/>
<text text-anchor="middle" x="2745" y="-67.5" font-family="Helvetica,sans-Serif" font-size="10.00">QtTest</text>
</a>
</g>
</g>
<!-- Node1&#45;&gt;Node23 -->
<g id="edge22" class="edge">
<title>Node1&#45;&gt;Node23</title>
<path fill="none" stroke="#63b8ff" d="M1725.16,-135C1929.97,-134.48 2524.44,-129.11 2713,-85 2714.95,-84.54 2716.93,-83.97 2718.89,-83.32"/>
<polygon fill="#63b8ff" stroke="#63b8ff" points="2720.41,-86.49 2728.46,-79.6 2717.87,-79.97 2720.41,-86.49"/>
</g>
<!-- Node3 -->
<g id="node3" class="node">
<title>Node3</title>
<g id="a_node3"><a xlink:title=" ">
<polygon fill="#e0e0e0" stroke="#999999" points="91,-19 35,-19 35,0 91,0 91,-19"/>
<text text-anchor="middle" x="63" y="-7" font-family="Helvetica,sans-Serif" font-size="10.00">QObject</text>
</a>
</g>
</g>
<!-- Node2&#45;&gt;Node3 -->
<g id="edge2" class="edge">
<title>Node2&#45;&gt;Node3</title>
<path fill="none" stroke="#63b8ff" d="M63,-60.37C63,-52.25 63,-39.81 63,-29.39"/>
<polygon fill="#63b8ff" stroke="#63b8ff" points="66.5,-29.17 63,-19.17 59.5,-29.17 66.5,-29.17"/>
</g>
</g>
</svg>
